# xmcd CD database file
#
# Track frame offsets:
#	150
#	13862
#	28235
#	42140
#	56947
#	72190
#	85540
#	98487
#	112320
#	125762
#	139980
#	153262
#	165977
#	180585
#	192917
#	205060
#	220480
#	234842
#	246942
#
# Disc length: 3461 seconds
#
# Revision: 0
# Processed by: cddbd v1.4PL0 Copyright (c) Steve Scherf et al.
# Submitted via: CDex 1.40Release
#
DISCID=0b0d8313
DTITLE=Country Blues Collector Items - Vol 2
DYEAR=1989
DGENRE=Blues
TTITLE0=Spark Plug Smith - Mama's Doughnut
TTITLE1=Spark Plug Smith - Motherless Boy
TTITLE2=Spark Plug Smith - Stopped Clock Blues
TTITLE3=Spark Plug Smith - Deserted Man Blues
TTITLE4=Spark Plug Smith - You Put That Thing On Me
TTITLE5=Spark Plug Smith - Sweet Evening Breeze
TTITLE6=Spark Plug Smith - In a Shanty In Old Shanty Town
TTITLE7=Spark Plug Smith - Vampire Woman
TTITLE8=Spark Plug Smith - New Blue Heaven
TTITLE9=Spark Plug Smith - Make It Tight
TTITLE10=Blind Squire Turner - She Thinks She's Slick
TTITLE11=Blind Squire Turner - Don't Like The Way You Do
TTITLE12=Sophisticated Jimmy La Rue - Sweet Violets
TTITLE13=Sophisticated Jimmy La Rue - Two Old Maids In A Folding Bed
TTITLE14=Sophisticated Jimmy La Rue - Money Truckin' Blues
TTITLE15=Papa Charlie McCoy - Times Ain't What They Used To Be
TTITLE16=Andrew Smokey Hogg - Family Trouble Blues
TTITLE17=Andrew Smokey Hogg - Kind Hearted Blues
TTITLE18=Jimmie Rodgers and Clifford Gibson - Let Me Be Your Sidetrack
EXTD=YEAR: 1989 ID3G: 0
EXTT0=
EXTT1=
EXTT2=
EXTT3=
EXTT4=
EXTT5=
EXTT6=
EXTT7=
EXTT8=
EXTT9=
EXTT10=
EXTT11=
EXTT12=
EXTT13=
EXTT14=
EXTT15=
EXTT16=
EXTT17=
EXTT18=
PLAYORDER=
